<?xml version="1.0" encoding="UTF-8"?>
<svg width="276px" height="426px" viewBox="0 0 276 426" version="1.1" xmlns="http://www.w3.org/2000/svg" xmlns:xlink="http://www.w3.org/1999/xlink">
    <!-- Generator: Sketch 49 (51002) - http://www.bohemiancoding.com/sketch -->
    <title>poz--full-body</title>
    <desc>Created with Sketch.</desc>
    <defs></defs>
    <g id="poz--full-body" stroke="none" stroke-width="1" fill="none" fill-rule="evenodd">
        <path d="M160.5,426 C218.766041,426 266,422.642136 266,418.5 C266,414.357864 210.766041,406 152.5,406 C94.2339589,406 55,414.357864 55,418.5 C55,422.642136 102.233959,426 160.5,426 Z" id="shadow" fill="#F5F5F6"></path>
        <path d="M125,218.912947 C125,222.912947 120.5,338.5 125,342.912947 C129.5,347.325895 192.5,346.5 196.5,342.912947 C199.166667,340.521579 199.166667,298.352485 196.5,216.405666 C148.833333,215.41052 125,216.246281 125,218.912947 Z" id="torso" fill="#464646"></path>
        <g id="face" transform="translate(46.000000, 0.000000)">
            <path d="M205.48,173.7 C204.092727,173.698948 202.709084,173.558238 201.35,173.28 C199.56,172.92 197.5,167.92 198.51,157.95 C199.94,143.76 206.03,133.08 209.27,133.08 L209.55,133.08 C219.867534,135.175065 226.920717,144.744965 225.867766,155.220274 C224.814816,165.695584 215.998096,173.670283 205.47,173.67 L205.48,173.7 Z" id="Shape" fill="#FFFFFF" fill-rule="nonzero"></path>
            <path d="M209.74,137.26 C217.742206,139.399711 222.917685,147.140787 221.836694,155.353284 C220.755702,163.565781 213.753335,169.703916 205.47,169.7 C204.693638,169.697786 203.918392,169.64098 203.15,169.53 C202.27,167.45 201.59,161.37 203.34,152.76 C205.09,144.15 208.11,138.82 209.74,137.26 Z M209.27,129.08 C196.57,129.08 187.65,174.57 200.55,177.2 C213.685672,179.641363 226.355386,171.108312 229.030662,158.018276 C231.705938,144.92824 223.400234,132.108338 210.36,129.2 C210.004619,129.127081 209.642785,129.090227 209.28,129.09 L209.27,129.08 Z" id="Shape" fill="#464646" fill-rule="nonzero"></path>
            <path d="M25,174.15 C14.4719038,174.150283 5.6551841,166.175584 4.60223357,155.700274 C3.54928305,145.224965 10.6024657,135.655065 20.92,133.56 L21.2,133.56 C24.45,133.56 30.53,144.24 31.96,158.43 C32.96,168.43 30.91,173.43 29.12,173.77 C27.7628324,174.034143 26.3825861,174.161447 25,174.15 Z" id="Shape" fill="#FFFFFF" fill-rule="nonzero"></path>
            <path d="M20.71,137.71 C22.34,139.28 25.35,144.6 27.11,153.21 C28.87,161.82 28.19,167.9 27.3,169.98 C18.6703337,171.188728 10.5884177,165.478611 8.8448964,156.940912 C7.10137506,148.403213 12.2973779,139.981553 20.71,137.71 Z M21.18,129.53 C20.8172155,129.530227 20.4553807,129.567081 20.1,129.64 C11.3919436,131.258458 4.23543936,137.450928 1.38254846,145.836074 C-1.47034244,154.221219 0.424637063,163.49329 6.33876532,170.086676 C12.2528936,176.680062 21.2652124,179.56803 29.91,177.64 C42.8,175.01 33.91,129.52 21.19,129.52 L21.18,129.53 Z" id="Shape" fill="#464646" fill-rule="nonzero"></path>
            <path d="M115.06,219.5 C62.37,219.5 19.5,176 19.5,122.58 L19.5,77.38 L23.13,81.48 C24.2835302,82.7811109 26.0834447,83.3012081 27.7531735,82.8158964 C29.4229022,82.3305847 30.6636118,80.926721 30.94,79.21 C30.94,79.1 32.99,67.21 41.42,53.37 C52.64,35 69.29,22 90.92,14.77 C99.75,11.83 123.1,5 149.37,5 C164.84,5 178.3,7.4 189.44,12.15 C186.202437,15.6948489 182.658724,18.9474347 178.85,21.87 C177.54382,22.9182438 176.898978,24.585676 177.16,26.24 C177.43268,27.890961 178.582197,29.2627175 180.16,29.82 C192.16,33.89 202.96,38.08 207.31,40.25 C204.731066,44.635137 201.668604,48.7173018 198.18,52.42 C196.656638,54.1091174 196.592944,56.6568721 198.03,58.42 L210.5,73.61 L210.5,124 C210.584776,175.026875 170.474285,217.072367 119.5,219.39 C118,219.46 116.55,219.5 115.06,219.5 Z" id="Shape" fill="#FFFFFF" fill-rule="nonzero"></path>
            <path d="M149.37,9.49 C161.37,9.49 172.05,10.98 181.29,13.92 C179.73,15.32 177.95,16.84 176.05,18.33 C173.435899,20.3929987 172.159124,23.7202796 172.722136,27.002429 C173.285148,30.2845784 175.59781,32.9961364 178.75,34.07 C187.31,36.99 195.45,40.01 200.75,42.21 C198.93023,44.7001712 196.97739,47.0903139 194.9,49.37 C191.882033,52.7107445 191.746252,57.7516336 194.58,61.25 L206,75.21 L206,124 C206.001387,172.579399 167.844627,212.593813 119.32,214.9 C117.9,214.97 116.47,215 115.06,215 C90.8441112,215.00259 67.6549944,205.218442 50.76,187.87 C33.5607489,170.499258 23.9394632,147.024903 24,122.58 L24,87.16 C26.4672049,87.8744412 29.1221149,87.5006721 31.2961654,86.132816 C33.470216,84.7649599 34.9562313,82.5333666 35.38,80 C35.38,79.89 37.38,68.56 45.47,55.43 C56.11,38.09 71.89,25.86 92.35,19 C100.96,16.13 123.77,9.45 149.35,9.45 L149.37,9.49 Z M149.35,0.45 C126.81,0.45 104.5,5.45 89.48,10.45 C34.48,28.78 26.48,78.45 26.48,78.45 L20.48,71.63 C19.9009082,70.957391 19.0575528,70.5703968 18.17,70.57 C17.3233865,70.556272 16.5075516,70.8872268 15.9097704,71.4868938 C15.3119892,72.0865607 14.9836055,72.903434 15,73.75 L15,122.58 C15,178.32 59.93,224 115.06,224 C116.61,224 118.17,224 119.74,223.89 C173.06658,221.359476 215.001282,177.386587 215,124 L215,73.46 C214.998466,72.5151622 214.669855,71.5999966 214.07,70.87 L201.55,55.56 C201.519443,55.5258359 201.519443,55.4741641 201.55,55.44 C202.35,54.57 212.55,43.36 212.55,38.49 C212.55,36.1 184.1,26.36 181.71,25.54 C181.680051,25.5245644 181.661231,25.4936932 181.661231,25.46 C181.661231,25.4263068 181.680051,25.3954356 181.71,25.38 C183.32,24.11 198.98,11.62 194.58,9.48 C181.02,2.9 165.18,0.48 149.45,0.48 L149.35,0.45 Z" id="Shape" fill="#464646" fill-rule="nonzero"></path>
            <circle id="Oval" fill="#464646" fill-rule="nonzero" cx="49.5" cy="138.5" r="9"></circle>
            <circle id="Oval" fill="#464646" fill-rule="nonzero" cx="179.5" cy="138.5" r="9.5"></circle>
            <path d="M177.91,174.94 C178.554913,175.027521 179.105614,175.449218 179.358263,176.049002 C179.610911,176.648786 179.527917,177.337417 179.14,177.86 C163.919899,197.919737 140.19024,209.702081 115.01,209.702081 C89.8297596,209.702081 66.1001007,197.919737 50.88,177.86 C50.522232,177.34066 50.4553609,176.674275 50.7028042,176.094203 C50.9502474,175.514131 51.4775283,175.101195 52.1,175 C72.6627645,172.353033 93.367938,170.963783 114.1,170.84 C135.434795,170.8714 156.746623,172.240754 177.91,174.94 Z" id="Shape" fill="#464646" fill-rule="nonzero"></path>
            <path d="M195.5,127.5 C195.5,121.977153 191.022847,117.5 185.5,117.5" id="Shape" stroke="#464646" stroke-width="4" stroke-linecap="round"></path>
            <path d="M44.5,117.5 C38.9771525,117.5 34.5,121.977153 34.5,127.5" id="Shape" stroke="#464646" stroke-width="4" stroke-linecap="round"></path>
            <path d="M77.27,199.28 C77.0027919,199.207022 76.7943313,198.997807 76.7223201,198.730337 C76.6503089,198.462867 76.7255508,198.17727 76.92,197.98 C84.4472326,190.424602 95.0765904,186.827326 105.645164,188.258589 C116.213738,189.689852 125.503442,195.984694 130.75,205.27 C130.884659,205.511385 130.881513,205.806008 130.741729,206.044462 C130.601946,206.282916 130.346404,206.429584 130.07,206.43 C121.291937,206.371214 112.525643,205.776775 103.82,204.65 C94.8664201,203.416918 85.9990077,201.623397 77.27,199.28 Z" id="Shape" fill="#FFFFFF" fill-rule="nonzero"></path>
            <path d="M114.08,176.79 C132.618191,176.842281 151.139483,177.913899 169.56,180 C155.476539,195.171718 135.710843,203.792836 115.01,203.792836 C94.3091569,203.792836 74.5434608,195.171718 60.46,180 C78.2621932,177.964322 96.1620182,176.899412 114.08,176.81 L114.08,176.79 Z M114.08,170.81 C93.3479371,170.933758 72.6427621,172.323009 52.08,174.97 C51.4333299,175.058586 50.8819893,175.483132 50.6310932,176.085694 C50.3801971,176.688256 50.4673011,177.378639 50.86,177.9 C66.0801007,197.959737 89.8097596,209.742081 114.99,209.742081 C140.17024,209.742081 163.899899,197.959737 179.12,177.9 C179.507917,177.377417 179.590911,176.688786 179.338263,176.089002 C179.085614,175.489218 178.534913,175.067521 177.89,174.98 C156.724577,172.26025 135.40939,170.870855 114.07,170.82 L114.08,170.81 Z" id="Shape" fill="#464646" fill-rule="nonzero"></path>
        </g>
        <g id="right-arm-" transform="translate(193.000000, 220.000000)">
            <path d="M0,0.5 C27,14.5 42.8333333,26.1666667 47.5,35.5 C52.1666667,44.8333333 38.6666667,59.6666667 7,80" id="Path-3" stroke="#464646" stroke-width="9"></path>
            <circle id="Oval-2" fill="#464646" cx="10.5" cy="85.5" r="10.5"></circle>
        </g>
        <g id="left-leg" transform="translate(96.000000, 342.000000)">
            <path d="M40.5,0.5 L40.5,63.5" id="Path-5" stroke="#464646" stroke-width="8"></path>
            <path d="M36.5,62 C32,62 -3.5,77.5 0.5,79 C4.5,80.5 51,78.5 54,78.5 C56,78.5 52.8333333,73 44.5,62 C42.1666667,62 39.5,62 36.5,62 Z" id="Path-6" fill="#464646"></path>
        </g>
        <g id="right-leg" transform="translate(195.500000, 382.000000) scale(-1, 1) translate(-195.500000, -382.000000) translate(174.000000, 342.000000)">
            <path d="M33,0.5 L28.5,63.5" id="Path-5" stroke="#464646" stroke-width="8"></path>
            <path d="M24.5,62 C20,62 -3.5,77 0.5,78.5 C4.5,80 39,78.5 42,78.5 C44,78.5 40.8333333,73 32.5,62 C30.1666667,62 27.5,62 24.5,62 Z" id="Path-6" fill="#464646"></path>
        </g>
        <g id="left-arm" transform="translate(-1.000000, 184.000000)">
            <path d="M130.5,35 C109.5,66.3333333 91.8333333,79.8333333 77.5,75.5 C63.1666667,71.1666667 47,57 29,33" id="Path-4" stroke="#464646" stroke-width="8"></path>
            <path d="M2.19248611,22.9231197 C0.192486109,15.4231197 12.4388768,2.92311966 17.5040291,2.92311966 C20.8807973,2.92311966 25.7769497,7.58978633 32.1924861,16.9231197 C33.6006065,13.6182438 35.1006065,11.7849105 36.6924861,11.4231197 C39.0803056,10.8804334 41.3193749,12.2806675 41.7022627,15.9236019 C42.0851505,19.5665363 36.6924861,32.4231197 30.6924861,35.9231197 C24.6924861,39.4231197 4.19248611,30.4231197 2.19248611,22.9231197 Z" id="Path-8" fill="#464646" transform="translate(21.847665, 19.812522) rotate(6.000000) translate(-21.847665, -19.812522) "></path>
        </g>
    </g>
</svg>