<?xml version="1.0" encoding="UTF-8"?>
<svg width="92px" height="90px" viewBox="0 0 92 90" version="1.1" xmlns="http://www.w3.org/2000/svg" xmlns:xlink="http://www.w3.org/1999/xlink">
    <!-- Generator: Sketch 49.1 (51147) - http://www.bohemiancoding.com/sketch -->
    <title>face</title>
    <desc>Created with Sketch.</desc>
    <defs></defs>
    <g id="Page-1" stroke="none" stroke-width="1" fill="none" fill-rule="evenodd">
        <g id="Desktop-HD" transform="translate(-362.000000, -64.000000)" fill-rule="nonzero">
            <g id="main-panel" transform="translate(338.000000, 36.000000)">
                <g id="face" transform="translate(24.000000, 28.000000)">
                    <path d="M81.2323823,69.8448136 C80.5222759,69.7029198 79.7050585,67.7321718 80.105733,63.8025004 C80.6730247,58.2095176 83.0889732,54 84.3743055,54 L84.4853836,54 C88.5784266,54.8257689 91.3764769,58.5977412 90.9587635,62.7265801 C90.5410502,66.855419 87.0433915,69.9986436 82.8668171,69.9985319 C82.3204427,70.0099417 81.7715412,69.9544811 81.2323823,69.8448136 Z" id="Shape" fill="#63A4FF"></path>
                    <path d="M84.1467827,55.2021183 C87.3220515,56.039723 89.3756778,59.0700213 88.9467412,62.2848609 C88.5178047,65.4997005 85.7392709,67.9025164 82.4524501,67.9009833 C82.1443902,67.9001168 81.8367734,67.8778794 81.531876,67.8344357 C81.1826927,67.0202051 80.9128692,64.6401465 81.6072678,61.2697018 C82.3016664,57.899257 83.5,55.8127912 84.1467827,55.2021183 Z M83.9602871,52 C78.9209372,52 75.3814882,69.8073789 80.500198,70.8369108 C85.7124224,71.7925996 90.7397548,68.4522769 91.8013023,63.3280907 C92.8628497,58.2039045 89.5671529,53.185464 84.3927982,52.0469748 C84.2517834,52.0184302 84.1082077,52.0040036 83.9642551,52.0039146 L83.9602871,52 Z" id="Shape" fill="#FFFFFF"></path>
                    <path d="M10.1342556,69.9997207 C5.95713027,69.9998324 2.45901035,66.8563742 2.04124192,62.7272286 C1.62347348,58.5980829 4.4218928,54.8258302 8.51547559,54 L8.62656833,54 C9.91603767,54 12.3283372,58.2098304 12.8957037,63.8032287 C13.2924635,67.7450176 12.4791059,69.715912 11.7689059,69.8499328 C11.2304364,69.9540524 10.6828101,70.004233 10.1342556,69.9997207 Z" id="Shape" fill="#63A4FF"></path>
                    <path d="M8.5652751,55.1947439 C9.24190893,55.8071674 10.4913984,57.8823856 11.2219969,61.2409626 C11.9525954,64.5995395 11.6703187,66.9712176 11.3008683,67.7825811 C7.71858358,68.2540802 4.36367698,66.0266853 3.63991899,62.6963116 C2.916161,59.3659379 5.07308817,56.0808282 8.5652751,55.1947439 Z M8.76037811,52.0039008 C8.60978162,52.0039895 8.45957939,52.0183653 8.31205631,52.0468094 C4.69723083,52.6781352 1.72647447,55.0936856 0.542203003,58.3645517 C-0.642068463,61.6354177 0.144561744,65.2522543 2.59959195,67.8241932 C5.05462216,70.3961322 8.79575087,71.5226666 12.3843127,70.7705833 C17.7351164,69.7446766 14.0447638,52 8.76452923,52 L8.76037811,52.0039008 Z" id="Shape" fill="#FFFFFF"></path>
                    <path d="M46.5241614,88 C25.282658,88 8,70.5594406 8,49.1416317 L8,31.0194872 L9.46340211,32.66331 C9.92843751,33.1849675 10.654057,33.3934914 11.3271933,33.1989142 C12.0003295,33.004337 12.5005105,32.4414825 12.6119339,31.7531935 C12.6119339,31.7090909 13.4383731,26.9420047 16.8368524,21.3931002 C21.3600953,14.027972 28.0723943,8.81585082 36.7923358,5.91710956 C40.3520715,4.7383683 49.7654157,2 60.3559318,2 C66.5925243,2 72.0188032,2.96223776 76.5097948,4.86666667 C75.2046001,6.28791144 73.7759841,7.59197849 72.2405308,8.7637296 C71.7139561,9.18400452 71.4539938,9.85253209 71.5592224,10.5158042 C71.669151,11.177728 72.1325683,11.7277096 72.7686456,11.9511422 C77.6063386,13.5829371 81.9602622,15.2628438 83.7139259,16.1328671 C82.6742515,17.8910107 81.4396472,19.5276828 80.0332478,21.0122145 C79.419118,21.6894364 79.3934404,22.7109138 79.9727767,23.4178089 L84.9999459,29.507972 L84.9999459,49.7109557 C85.0341228,70.1692833 68.8639361,87.0266832 48.3141078,87.9558974 C47.7093962,87.9839627 47.1248416,88 46.5241614,88 Z" id="Shape" fill="#63A4FF"></path>
                    <path d="M59.7480769,3.63945426 C64.5480628,3.63945426 68.8200503,4.23932006 72.5160395,5.42294789 C71.8920413,5.98658018 71.1800434,6.59852382 70.4200456,7.19838962 C69.3744083,8.02894153 68.8636999,9.36848654 69.0889039,10.6898618 C69.3141079,12.0112371 70.23917,13.1028955 71.5000425,13.535227 C74.9240324,14.710803 78.1800229,15.9266383 80.3000167,16.8123462 C79.5721107,17.8148755 78.790977,18.7771337 77.9600235,19.6949228 C76.7528404,21.0398882 76.698528,23.0693224 77.8320239,24.4777455 L82.4000105,30.0979647 L82.4000105,49.7405502 C82.4005654,69.2983488 67.1379062,85.4079319 47.7281121,86.3363901 C47.1601137,86.3645717 46.5881154,86.3766495 46.0241171,86.3766495 C36.3377899,86.3776924 27.0621704,82.4386481 20.3041924,75.4542608 C13.4245121,68.4608955 9.5760091,59.0102493 9.60022373,49.168866 L9.60022373,34.9089689 C10.5871028,35.196599 11.6490637,35.0461216 12.5186814,34.4954303 C13.388299,33.944739 13.9827034,33.0463118 14.1522104,32.0263923 C14.1522104,31.9821069 14.9522081,27.4207113 18.1881986,22.1346455 C22.4441861,15.1536569 28.7561676,10.2299262 36.9401437,7.46812794 C40.3841336,6.31268173 49.5081069,3.62335048 59.7400769,3.62335048 L59.7480769,3.63945426 Z M59.7400769,0 C50.7241033,0 41.8001294,2.01297249 35.792147,4.02594498 C13.7922115,11.4055021 10.5922208,31.4023708 10.5922208,31.4023708 L8.19222786,28.6566764 C7.96059182,28.3858877 7.62325065,28.2300859 7.26823056,28.2299262 C6.92958617,28.2243994 6.60325315,28.35764 6.36414137,28.5990626 C6.12502959,28.8404852 5.99367651,29.1693539 6.00023428,29.5101767 L6.00023428,49.168866 C6.00023428,71.6094833 23.9721816,90 46.0241171,90 C46.6441153,90 47.2681134,90 47.8961116,89.9557146 C69.2266811,88.9369395 86.0005128,71.2336964 86,49.7405502 L86,29.3934243 C85.9993865,29.0130378 85.8679423,28.6445972 85.6280011,28.3507045 L80.6200158,22.1869828 C80.6077929,22.1732285 80.6077929,22.1524257 80.6200158,22.1386714 C80.9400148,21.7884142 85.0200029,17.2753299 85.0200029,15.3146947 C85.0200029,14.3524938 73.6400362,10.4312234 72.684039,10.101096 C72.6720592,10.0948817 72.6645315,10.0824531 72.6645315,10.0688884 C72.6645315,10.0553237 72.6720592,10.0428951 72.684039,10.0366808 C73.3280371,9.52538582 79.5920188,4.49698054 77.8320239,3.63542832 C72.4080398,0.98635652 66.0720584,0.0120778349 59.7800768,0.0120778349 L59.7400769,0 Z" id="Shape" fill="#FFFFFF"></path>
                    <circle id="Oval" fill="#FFFFFF" cx="19.5" cy="55.5" r="3.5"></circle>
                    <circle id="Oval" fill="#FFFFFF" cx="72" cy="56" r="4"></circle>
                    <path d="M71.3577689,69.6880208 C71.6178399,69.7240541 71.8399187,69.8976723 71.9418032,70.1446108 C72.0436877,70.3915493 72.010219,70.6750672 71.8537854,70.8902209 C65.7160451,79.1490631 56.1466943,84 45.9923741,84 C35.8380539,84 26.268703,79.1490631 20.1309628,70.8902209 C19.9866873,70.6764024 19.9597205,70.4020433 20.0595058,70.1632205 C20.1592911,69.9243978 20.3719253,69.7543869 20.6229466,69.7127235 C28.9151984,68.6229345 37.2648789,68.050963 45.6254025,68 C54.2289876,68.0129279 62.8233107,68.576708 71.3577689,69.6880208 Z" id="Shape" fill="#FFFFFF"></path>
                    <path d="M78,51.2857143 C78,51.6802034 77.6802034,52 77.2857143,52 C76.8912252,52 76.5714286,51.6802034 76.5714286,51.2857143 C76.5714286,49.7077579 75.2922421,48.4285714 73.7142857,48.4285714 C73.3197966,48.4285714 73,48.1087748 73,47.7142857 C73,47.3197966 73.3197966,47 73.7142857,47 C76.0812204,47 78,48.9187796 78,51.2857143 Z" id="Shape" fill="#FFFFFF"></path>
                    <path d="M17.2857143,47 C17.6802034,47 18,47.3197966 18,47.7142857 C18,48.1087748 17.6802034,48.4285714 17.2857143,48.4285714 C15.7077579,48.4285714 14.4285714,49.7077579 14.4285714,51.2857143 C14.4285714,51.6802034 14.1087748,52 13.7142857,52 C13.3197966,52 13,51.6802034 13,51.2857143 C13,48.9187796 14.9187796,47 17.2857143,47 Z" id="Shape" fill="#FFFFFF"></path>
                    <path d="M31.2333996,79.904779 C31.1248453,79.8731871 31.0401574,79.7826182 31.0109025,79.6668309 C30.9816477,79.5510436 31.012215,79.4274092 31.0912107,79.3420115 C34.1491774,76.0712945 38.4673943,74.5140406 42.7609174,75.1336317 C47.0544405,75.7532227 50.828418,78.4782476 52.9598519,82.4978383 C53.0145577,82.6023332 53.0132795,82.7298752 52.956492,82.8331014 C52.8997045,82.9363276 52.7958897,82.9998198 52.6835994,83 C49.1174781,82.9745515 45.5561379,82.7172203 42.0194375,82.2294415 C38.3820118,81.6956429 34.779592,80.9192308 31.2333996,79.904779 Z" id="Shape" fill="#63A4FF"></path>
                    <path d="M45.6347125,70.4576133 C53.107885,70.4790994 60.5742452,70.9195043 67.9999804,71.7768338 C62.3226125,78.0119871 54.3546044,81.5550261 46.0096169,81.5550261 C37.6646295,81.5550261 29.6966214,78.0119871 24.0192534,71.7768338 C31.1957282,70.9402268 38.4115606,70.5025787 45.6347125,70.4658328 L45.6347125,70.4576133 Z M45.6347125,68 C37.2771396,68.0508611 28.9304059,68.6218043 20.6410821,69.709644 C20.3803945,69.7460505 20.1581363,69.920527 20.0569943,70.1681632 C19.9558523,70.4157994 19.990966,70.6995275 20.149272,70.9137924 C26.2848457,79.1577851 35.8508186,84 46.0015545,84 C56.1522903,84 65.7182633,79.1577851 71.853837,70.9137924 C72.0102154,70.6990255 72.0436723,70.4160173 71.9418237,70.1695228 C71.8399752,69.9230283 71.6179748,69.7497223 71.3579956,69.7137538 C62.8257255,68.5960123 54.2330817,68.0250097 45.6306813,68.0041097 L45.6347125,68 Z" id="Shape" fill="#FFFFFF"></path>
                </g>
            </g>
        </g>
    </g>
</svg>