<svg id="Layer_1" data-name="Layer 1" xmlns="http://www.w3.org/2000/svg" viewBox="0 0 232 225"><defs><style>.cls-1{fill:#fff;}.cls-2{fill:#464646;}.cls-3{fill:none;stroke:#464646;stroke-linecap:round;stroke-miterlimit:10;stroke-width:4px;}</style></defs><title>branding__face</title><path class="cls-1" d="M206.48,173.7a20.67,20.67,0,0,1-4.13-.42c-1.79-.36-3.85-5.36-2.84-15.33,1.43-14.19,7.52-24.87,10.76-24.87l.28,0a20.5,20.5,0,0,1-4.08,40.59Z"/><path class="cls-2" d="M210.74,137.26a16.5,16.5,0,0,1-4.27,32.44,16.56,16.56,0,0,1-2.32-.17c-.88-2.08-1.56-8.16.19-16.77s4.77-13.94,6.4-15.5m-.47-8.18c-12.7,0-21.62,45.49-8.72,48.12a24.5,24.5,0,0,0,9.81-48,5.39,5.39,0,0,0-1.08-.11Z"/><path class="cls-1" d="M26,174.15a20.5,20.5,0,0,1-4.08-40.59l.28,0c3.25,0,9.33,10.68,10.76,24.87,1,10-1.05,15-2.84,15.34A20.67,20.67,0,0,1,26,174.15Z"/><path class="cls-2" d="M21.71,137.71c1.63,1.57,4.64,6.89,6.4,15.5s1.08,14.69.19,16.77a16.5,16.5,0,0,1-6.59-32.27m.47-8.18a5.39,5.39,0,0,0-1.08.11,24.5,24.5,0,1,0,9.81,48c12.89-2.63,4-48.12-8.72-48.12Z"/><path class="cls-1" d="M116.06,219.5C63.37,219.5,20.5,176,20.5,122.58V77.38l3.63,4.1a4.5,4.5,0,0,0,7.81-2.27c0-.11,2.05-12,10.48-25.84C53.64,35,70.29,22,91.92,14.77,100.75,11.83,124.1,5,150.37,5c15.47,0,28.93,2.4,40.07,7.15a81.7,81.7,0,0,1-10.59,9.72,4.67,4.67,0,0,0-1.69,4.37,4.59,4.59,0,0,0,3,3.58c12,4.07,22.8,8.26,27.15,10.43a68.06,68.06,0,0,1-9.13,12.17,4.61,4.61,0,0,0-.15,6L211.5,73.61V124a95.33,95.33,0,0,1-91,95.39C119,219.46,117.55,219.5,116.06,219.5Z"/><path class="cls-2" d="M150.37,9.49c12,0,22.68,1.49,31.92,4.43-1.56,1.4-3.34,2.92-5.24,4.41a9.09,9.09,0,0,0,2.7,15.74c8.56,2.92,16.7,5.94,22,8.14a85.72,85.72,0,0,1-5.85,7.16,9.14,9.14,0,0,0-.32,11.88L207,75.21V124a91,91,0,0,1-86.68,90.9c-1.42.07-2.85.1-4.26.1a89.74,89.74,0,0,1-64.3-27.13A92.47,92.47,0,0,1,25,122.58V87.16A9,9,0,0,0,36.38,80c0-.11,2-11.44,10.09-24.57C57.11,38.09,72.89,25.86,93.35,19c8.61-2.87,31.42-9.55,57-9.55h0m0-9c-22.54,0-44.85,5-59.87,10-55,18.33-63,68-63,68l-6-6.82a3.05,3.05,0,0,0-2.31-1.06A3.12,3.12,0,0,0,16,73.75v48.83C16,178.32,60.93,224,116.06,224c1.55,0,3.11,0,4.68-.11A100,100,0,0,0,216,124V73.46a4.09,4.09,0,0,0-.93-2.59L202.55,55.56a.09.09,0,0,1,0-.12c.8-.87,11-12.08,11-16.95,0-2.39-28.45-12.13-30.84-12.95a.09.09,0,0,1,0-.16c1.61-1.27,17.27-13.76,12.87-15.9-13.56-6.58-29.4-9-45.13-9Z"/><circle class="cls-2" cx="50.5" cy="138.5" r="9"/><circle class="cls-2" cx="180.5" cy="138.5" r="9.5"/><path class="cls-2" d="M178.91,174.94a1.84,1.84,0,0,1,1.23,2.92,80.5,80.5,0,0,1-128.26,0A1.84,1.84,0,0,1,53.1,175a509.44,509.44,0,0,1,62-4.16A510.29,510.29,0,0,1,178.91,174.94Z"/><path class="cls-3" d="M196.5,127.5a10,10,0,0,0-10-10"/><path class="cls-3" d="M45.5,117.5a10,10,0,0,0-10,10"/><path class="cls-1" d="M78.27,199.28a.78.78,0,0,1-.35-1.3,34.09,34.09,0,0,1,53.83,7.29.78.78,0,0,1-.68,1.16,215.76,215.76,0,0,1-26.25-1.78A216.12,216.12,0,0,1,78.27,199.28Z"/><path class="cls-2" d="M115.08,176.79A505.7,505.7,0,0,1,170.56,180a74.43,74.43,0,0,1-109.1,0,493.65,493.65,0,0,1,53.62-3.19m0-6a509.43,509.43,0,0,0-62,4.16,1.84,1.84,0,0,0-1.22,2.93,80.5,80.5,0,0,0,128.26,0,1.84,1.84,0,0,0-1.23-2.92,510.28,510.28,0,0,0-63.82-4.16Z"/></svg>