<svg width="100" height="74" viewBox="0 0 100 74" xmlns="http://www.w3.org/2000/svg"><title>illustraions__lti__pending</title><g fill-rule="nonzero" fill="none"><path d="M95.42 73.664H4.58a4.206 4.206 0 0 1-4.198-4.198V5.344a2.672 2.672 0 0 1 5.343 0V68.32H95.42a2.672 2.672 0 1 1 0 5.343z" fill="#D3D6D9"/><rect fill="#63A4FF" x="3.053" width="96.947" height="70.992" rx="2"/><path d="M97.71 2.29v66.412H5.344V2.29H97.71zM98.473 0H4.58c-.843 0-1.527.684-1.527 1.527v67.939c0 .843.684 1.526 1.527 1.526h93.893c.843 0 1.527-.683 1.527-1.526V1.526C100 .685 99.316 0 98.473 0z" fill="#464646"/><path d="M90.458 11.069h-13.74a.763.763 0 1 1 0-1.527h13.74a.763.763 0 0 1 0 1.527zm-.763 4.198H76.718a.382.382 0 1 1 0-.763h12.977a.382.382 0 0 1 0 .763zm0 3.054H76.718a.382.382 0 1 1 0-.764h12.977a.382.382 0 0 1 0 .764zm-4.58 3.053h-8.397a.382.382 0 1 1 0-.763h8.397a.382.382 0 0 1 0 .763zm-17.94-10.687v38.168h-41.22V10.687h41.22zm0-1.527h-41.22c-.844 0-1.528.684-1.528 1.527v38.168c0 .843.684 1.527 1.527 1.527h41.222c.843 0 1.526-.684 1.526-1.527V10.687c0-.843-.683-1.527-1.526-1.527zm-48.091 1.527h-3.053a.763.763 0 1 1 0-1.527h3.053a.763.763 0 0 1 0 1.527zm0 39.695h-3.053a.763.763 0 1 1 0-1.527h3.053a.763.763 0 0 1 0 1.527z" fill="#FBFBFF"/><path d="M17.557 12.214a.763.763 0 0 1-.763-.764V9.924a.763.763 0 0 1 1.527 0v1.526a.763.763 0 0 1-.764.764zm0 31.198a.763.763 0 0 1-.763-.763v-3.122a.763.763 0 1 1 1.527 0v3.122a.763.763 0 0 1-.764.763zm0-7.801a.763.763 0 0 1-.763-.764v-3.114a.763.763 0 0 1 1.527 0v3.122a.763.763 0 0 1-.764.756zm0-7.802a.763.763 0 0 1-.763-.763V23.93a.763.763 0 0 1 1.527 0v3.122a.763.763 0 0 1-.764.764v-.008zm0-7.801a.763.763 0 0 1-.763-.764V16.13a.763.763 0 0 1 1.527 0v3.122a.763.763 0 0 1-.764.763v-.007zm0 29.61a.763.763 0 0 1-.763-.763v-1.527a.763.763 0 0 1 1.527 0v1.527a.763.763 0 0 1-.764.763zm7.634 9.924a.763.763 0 0 1-.764-.763v-3.054a.763.763 0 0 1 1.527 0v3.054a.763.763 0 0 1-.763.763zm42.748 0a.763.763 0 0 1-.763-.763v-3.054a.763.763 0 0 1 1.526 0v3.054a.763.763 0 0 1-.763.763z" fill="#FBFBFF"/><path d="M27.48 58.015h-1.526a.763.763 0 0 1 0-1.526h1.527a.763.763 0 0 1 0 1.526zm33.192 0h-3.32a.763.763 0 0 1 0-1.526h3.32a.763.763 0 0 1 0 1.526zm-8.298 0h-3.32a.763.763 0 0 1 0-1.526h3.32a.763.763 0 0 1 0 1.526zm-8.298 0h-3.32a.763.763 0 0 1 0-1.526h3.32a.763.763 0 0 1 0 1.526zm-8.297 0h-3.321a.763.763 0 0 1 0-1.526h3.32a.763.763 0 0 1 0 1.526zm31.397 0h-1.527a.763.763 0 1 1 0-1.526h1.527a.763.763 0 0 1 0 1.526zm.763-39.694H25.19a.763.763 0 0 1 0-1.527h42.748a.763.763 0 0 1 0 1.527zM12.214 32.06a.763.763 0 0 1-.764-.763v-3.054a.763.763 0 1 1 1.527 0v3.054a.763.763 0 0 1-.763.763zm35.878 30.534h-3.054a.763.763 0 1 1 0-1.526h3.054a.763.763 0 0 1 0 1.526zm8.015-19.847a5.725 5.725 0 1 1 5.725-5.725 5.733 5.733 0 0 1-5.725 5.725zm0-9.924a4.198 4.198 0 1 0 4.198 4.199 4.206 4.206 0 0 0-4.198-4.199z" fill="#FBFBFF"/><path d="M60.305 33.588a.763.763 0 0 1-.633-1.183c.152-.23.31-.45.473-.665a.763.763 0 0 1 1.214.924c-.143.183-.28.377-.412.58a.763.763 0 0 1-.642.344zm11.947-2.557a.763.763 0 0 1-.412-.123 8.977 8.977 0 0 0-1.16-.64.763.763 0 0 1 .633-1.39c.471.22.925.476 1.359.763a.763.763 0 0 1-.42 1.405v-.015zm-9.458-.077a.763.763 0 0 1-.443-1.381c.427-.294.88-.55 1.351-.764a.765.765 0 1 1 .657 1.382 7.206 7.206 0 0 0-1.122.656.763.763 0 0 1-.443.107zm5.443-1.397h-.092a7.382 7.382 0 0 0-1.305 0 .765.765 0 1 1-.092-1.526 8.985 8.985 0 0 1 1.573.045.765.765 0 1 1-.084 1.527v-.046zm6.572 4.03a.763.763 0 0 1-.656-.373 5.695 5.695 0 0 0-.382-.558.763.763 0 0 1 1.206-.93c.174.224.335.458.481.701a.763.763 0 0 1-.649 1.16zm14.886 1.528H76.718a.382.382 0 1 1 0-.764h12.977a.382.382 0 0 1 0 .764zm-3.054 3.053h-9.923a.382.382 0 1 1 0-.763h9.923a.382.382 0 1 1 0 .763z" fill="#FBFBFF"/></g></svg>