<svg width="24" height="20" viewBox="0 0 24 20" xmlns="http://www.w3.org/2000/svg"><title>twitter</title><path d="M21.551 5.503c0-.211 0-.423-.01-.634A10.033 10.033 0 0 0 24 2.315a9.98 9.98 0 0 1-2.833.777 4.955 4.955 0 0 0 2.17-2.727c-.95.567-2.007.97-3.13 1.19A4.915 4.915 0 0 0 16.614 0a4.93 4.93 0 0 0-4.927 4.927c0 .384.048.758.125 1.123C7.72 5.85 4.09 3.88 1.66.903A4.926 4.926 0 0 0 1 3.38c0 1.709.874 3.217 2.19 4.1A4.981 4.981 0 0 1 .96 6.867v.067c0 2.382 1.7 4.38 3.948 4.83a4.801 4.801 0 0 1-1.297.174c-.317 0-.624-.03-.922-.087a4.924 4.924 0 0 0 4.6 3.42 9.877 9.877 0 0 1-6.117 2.112c-.394 0-.788-.02-1.172-.067a14.008 14.008 0 0 0 7.539 2.199c9.056 0 14.012-7.51 14.012-14.012z" fill="#FFF" fill-rule="nonzero"/></svg>