<svg id="Layer_1" data-name="Layer 1" xmlns="http://www.w3.org/2000/svg" viewBox="0 0 98 54"><defs><style>.cls-1,.cls-4,.cls-7,.cls-8{fill:none;stroke-linecap:round}.cls-1,.cls-8{stroke:#a9aeb7}.cls-1,.cls-7,.cls-8{stroke-miterlimit:10}.cls-1,.cls-4{stroke-width:4px}.cls-1{opacity:.5}.cls-2{fill:#fff}.cls-3{fill:#464646}.cls-4{stroke:#d3d6d9;stroke-linejoin:round}.cls-5{fill:#a9aeb8}.cls-6{fill:#fbfbff}.cls-7{stroke:#464646}.cls-7,.cls-8{stroke-width:2px}.cls-9{fill:#e1e2e1}</style></defs><title>nav-icons__articles--bw</title><path class="cls-1" d="M4 6v42a2 2 0 0 0 2 2h72"/><rect class="cls-2" x="5" y="3" width="76" height="46" rx="1" ry="1"/><path class="cls-3" d="M80 4v44H6V4h74m0-2H6a2 2 0 0 0-2 2v44a2 2 0 0 0 2 2h74a2 2 0 0 0 2-2V4a2 2 0 0 0-2-2z"/><path class="cls-4" d="M88 6v40l2 2"/><path class="cls-2" d="M96 46l-3.22 4a1 1 0 0 1-1.56 0L88 46V5h8z"/><path class="cls-5" d="M88 5h8v40h-8z"/><path class="cls-5" d="M96 8h-8V4.4A2.23 2.23 0 0 1 90 2h4a2.23 2.23 0 0 1 2 2.4z"/><path class="cls-6" d="M88 8h8v3h-8z"/><path class="cls-3" d="M94 4v41.3l-2 2.5-2-2.5V4h4m0-2h-4a2 2 0 0 0-2 2v42l3.22 4a1 1 0 0 0 1.56 0L96 46V4a2 2 0 0 0-2-2z"/><path class="cls-7" d="M48 10h19"/><path class="cls-8" d="M48 18h28M48 24h28"/><path class="cls-9" d="M42 5h2v42h-2z"/><path class="cls-8" d="M48 30h15"/><path class="cls-5" d="M9 9h14v12H9z"/><path class="cls-8" d="M27 10h11M27 16h11M10 27h29M10 33h17"/></svg>