<svg id="Layer_1" data-name="Layer 1" xmlns="http://www.w3.org/2000/svg" viewBox="0 0 98 54"><defs><style>.cls-1{fill:none;stroke:#a9aeb7;stroke-linecap:round;stroke-miterlimit:10;stroke-width:4px;opacity:.5}.cls-2{fill:#fff}.cls-3{fill:#464646}.cls-4{fill:#e1e2e1}.cls-5{fill:#a9aeb8}</style></defs><title>nav-icons__work--bw</title><path class="cls-1" d="M4 6v42a2 2 0 0 0 2 2h52"/><rect class="cls-2" x="5" y="3" width="56" height="46" rx="1" ry="1"/><path class="cls-3" d="M60 4v44H6V4h54m0-2H6a2 2 0 0 0-2 2v44a2 2 0 0 0 2 2h54a2 2 0 0 0 2-2V4a2 2 0 0 0-2-2z"/><path class="cls-4" d="M6 4h54v4H6z"/><path class="cls-5" d="M10 12h46v12H10zM28 27h28v17H28zM10 27h15v17H10z"/><path class="cls-1" d="M67 6v42a2 2 0 0 0 2 2h23"/><rect class="cls-2" x="68" y="3" width="27" height="46" rx="1" ry="1"/><path class="cls-3" d="M94 4v44H69V4h25m0-2H69a2 2 0 0 0-2 2v44a2 2 0 0 0 2 2h25a2 2 0 0 0 2-2V4a2 2 0 0 0-2-2z"/><path class="cls-4" d="M69 4h25v4H69z"/><path class="cls-5" d="M71 11h21v10H71zM71 35h21v10H71zM71 23h21v10H71z"/></svg>