<?xml version="1.0" encoding="UTF-8"?>
<svg width="7px" height="22px" viewBox="0 0 7 22" version="1.1" xmlns="http://www.w3.org/2000/svg" xmlns:xlink="http://www.w3.org/1999/xlink">
    <!-- Generator: Sketch 50.2 (55047) - http://www.bohemiancoding.com/sketch -->
    <title>j</title>
    <desc>Created with Sketch.</desc>
    <defs></defs>
    <g id="Page-1" stroke="none" stroke-width="1" fill="none" fill-rule="evenodd">
        <g id="Home" transform="translate(-60.000000, -41.000000)" fill="#FFFFFF">
            <g id="top-bar" transform="translate(42.000000, 31.000000)">
                <g id="logo">
                    <path d="M18.893617,16.1970366 L24.787234,16.1970366 L24.787234,27.7137453 C24.787234,28.4628032 24.6773061,29.1060818 24.4574468,29.6436003 C24.2375876,30.1811187 23.9184418,30.6249982 23.5,30.9752522 C23.0815582,31.3255062 22.570925,31.5838579 21.9680851,31.7503153 C21.3652452,31.9167726 20.6773088,32 19.9042553,32 C19.5851048,32 19.262413,31.9878627 18.9361702,31.9635876 C18.6099274,31.9393126 18.2978738,31.8924972 18,31.82314 L18.1489362,29.471942 C18.234043,29.4927492 18.3528361,29.5118221 18.5053191,29.5291614 C18.6578022,29.5465007 18.813829,29.560372 18.9734043,29.5707755 C19.1329795,29.5811791 19.2854603,29.5881147 19.4308511,29.5915826 C19.5762419,29.5950505 19.6843968,29.5967844 19.7553191,29.5967844 C20.0390085,29.5967844 20.3067363,29.5655741 20.5585106,29.5031526 C20.8102849,29.4407311 21.0265948,29.3366968 21.2074468,29.1910467 C21.3882988,29.0453965 21.5319144,28.8529331 21.6382979,28.6136507 C21.7446814,28.3743683 21.7978723,28.0744028 21.7978723,27.7137453 L21.7978723,18.5586381 L18.893617,18.5586381 L18.893617,16.1970366 Z M21.5957447,11.5397226 C21.5957447,11.3177795 21.6365244,11.1114448 21.7180851,10.9207125 C21.7996458,10.7299801 21.9131198,10.5669931 22.0585106,10.4317465 C22.2039014,10.2965 22.3812046,10.1907318 22.5904255,10.1144388 C22.7996464,10.0381459 23.0319136,10 23.287234,10 C23.8120594,10 24.2287219,10.1439141 24.537234,10.4317465 C24.8457462,10.719579 25,11.0889006 25,11.5397226 C25,11.9905445 24.8457462,12.3598662 24.537234,12.6476986 C24.2287219,12.9355311 23.8120594,13.0794451 23.287234,13.0794451 C23.0319136,13.0794451 22.7996464,13.0412992 22.5904255,12.9650063 C22.3812046,12.8887134 22.2039014,12.7829452 22.0585106,12.6476986 C21.9131198,12.512452 21.7996458,12.349465 21.7180851,12.1587327 C21.6365244,11.9680003 21.5957447,11.7616657 21.5957447,11.5397226 Z" id="j"></path>
                </g>
            </g>
        </g>
    </g>
</svg>