<svg id="Layer_1" data-name="Layer 1" xmlns="http://www.w3.org/2000/svg" viewBox="0 0 69 69"><defs><style>.cls-1{fill:#e0e1e0}.cls-2{fill:#a9afb9}.cls-3{fill:#464646}.cls-4{fill:#fff}</style></defs><title>logo__bw--outlined</title><circle class="cls-1" cx="33" cy="36" r="32"/><circle class="cls-2" cx="36" cy="34" r="32"/><path class="cls-3" d="M36 5A29 29 0 1 1 7 34 29 29 0 0 1 36 5m0-3a32 32 0 1 0 32 32A32 32 0 0 0 36 2z"/><path class="cls-4" d="M29.36 49.31v-3.48a9.68 9.68 0 0 0 3.88 1 2.42 2.42 0 0 0 2.15-.94A5 5 0 0 0 36 43V27h5v16c0 2.7-.36 4.06-1.56 5.29s-3.12 1.85-5.76 1.85a14.6 14.6 0 0 1-4.32-.83zM36 23v-4h5v4z"/></svg>