<svg id="Layer_1" data-name="Layer 1" xmlns="http://www.w3.org/2000/svg" viewBox="0 0 69 69"><defs><style>.cls-1{fill:#e0e1e0;}.cls-2{fill:#63a4ff;}.cls-3{fill:#464646;}.cls-4{fill:#fff;}</style></defs><title>logo__Artboard 4</title><circle class="cls-1" cx="33" cy="36" r="32"/><path class="cls-2" d="M36,64.5A30.5,30.5,0,1,1,66.5,34,30.53,30.53,0,0,1,36,64.5Z"/><path class="cls-3" d="M36,5A29,29,0,1,1,7,34,29,29,0,0,1,36,5m0-3A32,32,0,1,0,68,34,32,32,0,0,0,36,2Z"/><path class="cls-4" d="M29.36,49.31V45.83a9.68,9.68,0,0,0,3.88,1,2.42,2.42,0,0,0,2.15-.94A5,5,0,0,0,36,43V27h5V43c0,2.7-.36,4.06-1.56,5.29s-3.12,1.85-5.76,1.85A14.6,14.6,0,0,1,29.36,49.31ZM36,23V19h5v4Z"/></svg>