<svg id="Layer_1" data-name="Layer 1" xmlns="http://www.w3.org/2000/svg" viewBox="0 0 800 130"><defs><style>.cls-1{fill:#fff;}.cls-2{fill:#464646;}.cls-3{fill:#12a6c7;}.cls-4{fill:#fcb725;}</style></defs><title>branding__Artboard 1</title><path class="cls-1" d="M262,77a19.3,19.3,0,1,1-38.6,0c0-10.66,8.64-23.81,19.3-23.81S262,66.36,262,77Z"/><path class="cls-2" d="M242.74,57.72c7.83,0,14.79,10.79,14.79,19.3a14.79,14.79,0,0,1-29.58,0c0-8.51,7-19.3,14.79-19.3m0-4.51c-10.66,0-19.3,13.15-19.3,23.81A19.3,19.3,0,0,0,262,77c0-10.66-8.64-23.81-19.3-23.81Z"/><path class="cls-1" d="M285.79,39.83a19.3,19.3,0,0,1-38.6,0c0-10.66,8.64-23.81,19.3-23.81S285.79,29.18,285.79,39.83Z"/><path class="cls-2" d="M266.5,20.54c7.83,0,14.79,10.79,14.79,19.3a14.79,14.79,0,0,1-29.58,0c0-8.51,7-19.3,14.79-19.3m0-4.51c-10.66,0-19.3,13.15-19.3,23.81a19.3,19.3,0,0,0,38.6,0c0-10.66-8.64-23.81-19.3-23.81Z"/><path class="cls-1" d="M299.22,94.67a19.3,19.3,0,0,1-38.6,0c0-10.66,8.64-23.81,19.3-23.81S299.22,84,299.22,94.67Z"/><path class="cls-2" d="M279.92,75.38c7.83,0,14.79,10.79,14.79,19.3a14.79,14.79,0,1,1-29.58,0c0-8.51,7-19.3,14.79-19.3m0-4.51c-10.66,0-19.3,13.15-19.3,23.81a19.3,19.3,0,0,0,38.6,0c0-10.66-8.64-23.81-19.3-23.81Z"/><path class="cls-1" d="M324.11,60.12a19.3,19.3,0,1,1-38.6,0c0-10.66,8.64-23.81,19.3-23.81S324.11,49.46,324.11,60.12Z"/><path class="cls-2" d="M304.81,40.82c7.83,0,14.79,10.79,14.79,19.3a14.79,14.79,0,0,1-29.58,0c0-8.51,7-19.3,14.79-19.3m0-4.51c-10.66,0-19.3,13.15-19.3,23.81a19.3,19.3,0,1,0,38.6,0c0-10.66-8.64-23.81-19.3-23.81Z"/><circle class="cls-1" cx="258.47" cy="34.34" r="2.25"/><path class="cls-2" d="M258.47,32.09a2.25,2.25,0,1,0,2.25,2.25,2.25,2.25,0,0,0-2.25-2.25Z"/><circle class="cls-1" cx="274.24" cy="34.34" r="2.25"/><path class="cls-2" d="M274.24,32.09a2.25,2.25,0,1,0,2.25,2.25,2.25,2.25,0,0,0-2.25-2.25Z"/><circle class="cls-1" cx="296.78" cy="59.13" r="2.25"/><path class="cls-2" d="M296.78,56.88A2.25,2.25,0,1,0,299,59.13a2.25,2.25,0,0,0-2.25-2.25Z"/><circle class="cls-1" cx="312.56" cy="59.13" r="2.25"/><path class="cls-2" d="M312.56,56.88a2.25,2.25,0,1,0,2.25,2.25,2.25,2.25,0,0,0-2.25-2.25Z"/><circle class="cls-1" cx="274.24" cy="90.68" r="2.25"/><path class="cls-2" d="M274.24,88.43a2.25,2.25,0,1,0,2.25,2.25,2.25,2.25,0,0,0-2.25-2.25Z"/><circle class="cls-1" cx="285.51" cy="90.68" r="2.25"/><path class="cls-2" d="M285.51,88.43a2.25,2.25,0,1,0,2.25,2.25,2.25,2.25,0,0,0-2.25-2.25Z"/><circle class="cls-1" cx="233.68" cy="79.41" r="2.25"/><path class="cls-2" d="M233.68,77.16a2.25,2.25,0,1,0,2.25,2.25,2.25,2.25,0,0,0-2.25-2.25Z"/><circle class="cls-1" cx="251.71" cy="79.41" r="2.25"/><path class="cls-2" d="M251.71,77.16A2.25,2.25,0,1,0,254,79.41a2.25,2.25,0,0,0-2.25-2.25Z"/><path class="cls-2" d="M265.23,46.74a11,11,0,0,1-7.56-2.58,1.13,1.13,0,0,1,1.59-1.6h0a8.78,8.78,0,0,0,6,1.93,22.33,22.33,0,0,0,8.51-2.13,1.13,1.13,0,0,1,1,2A24.26,24.26,0,0,1,265.23,46.74Z"/><path class="cls-1" d="M238.18,86.18a10.88,10.88,0,0,0,9,0"/><path class="cls-2" d="M242.86,88.31a12.55,12.55,0,0,1-5.18-1.12,1.13,1.13,0,0,1,1-2,9.83,9.83,0,0,0,8,0,1.13,1.13,0,1,1,1,2A10.75,10.75,0,0,1,242.86,88.31Z"/><path class="cls-1" d="M299,65.89c4.23,3.19,13.52,0,13.52,0"/><path class="cls-2" d="M304.45,68.43a10.11,10.11,0,0,1-6.09-1.64,1.13,1.13,0,1,1,1.36-1.8c3.08,2.32,10,.67,12.48-.17a1.13,1.13,0,1,1,.73,2.13A29.51,29.51,0,0,1,304.45,68.43Z"/><path class="cls-1" d="M274.24,99.7a15,15,0,0,0,11.27,0"/><path class="cls-2" d="M279.83,101.91a15,15,0,0,1-6.07-1.2,1.13,1.13,0,0,1,1-2,14,14,0,0,0,10.37,0,1.13,1.13,0,1,1,.83,2.1A16.55,16.55,0,0,1,279.83,101.91Z"/><circle class="cls-3" cx="292.84" cy="30.96" r="4.51"/><circle class="cls-3" cx="238.18" cy="46.17" r="4.51"/><circle class="cls-3" cx="254.52" cy="100.26" r="4.51"/><circle class="cls-3" cx="307.49" cy="86.74" r="4.51"/><path class="cls-4" d="M529,51l2.49,5a2.74,2.74,0,0,0,2.05,1.49l5.54.82A2.74,2.74,0,0,1,540.58,63l-4,3.92a2.74,2.74,0,0,0-.78,2.41l.93,5.52a2.74,2.74,0,0,1-4,2.88l-5-2.59a2.74,2.74,0,0,0-2.53,0l-5,2.59a2.74,2.74,0,0,1-4-2.88l.93-5.52a2.74,2.74,0,0,0-.78-2.41l-4-3.92A2.74,2.74,0,0,1,514,58.29l5.54-.82A2.74,2.74,0,0,0,521.61,56l2.49-5A2.74,2.74,0,0,1,529,51Z"/><path class="cls-2" d="M526.54,50.87a1.3,1.3,0,0,1,1.18.73l2.49,5a4.15,4.15,0,0,0,3.11,2.26l5.54.82a1.32,1.32,0,0,1,.73,2.25l-4,3.92a4.15,4.15,0,0,0-1.19,3.66l.93,5.52a1.27,1.27,0,0,1-.28,1.06,1.35,1.35,0,0,1-1,.48,1.31,1.31,0,0,1-.61-.16l-5-2.59a4.15,4.15,0,0,0-3.85,0l-5,2.59a1.31,1.31,0,0,1-.61.16,1.35,1.35,0,0,1-1-.48,1.27,1.27,0,0,1-.28-1.06l.93-5.52a4.15,4.15,0,0,0-1.19-3.66l-4-3.92a1.32,1.32,0,0,1,.73-2.25l5.54-.82a4.15,4.15,0,0,0,3.11-2.26l2.49-5a1.3,1.3,0,0,1,1.18-.73m0-1.42A2.7,2.7,0,0,0,524.09,51l-2.49,5a2.74,2.74,0,0,1-2.05,1.49l-5.54.82A2.74,2.74,0,0,0,512.51,63l4,3.92a2.74,2.74,0,0,1,.78,2.41l-.93,5.52a2.73,2.73,0,0,0,4,2.88l5-2.59a2.74,2.74,0,0,1,2.53,0l5,2.59a2.73,2.73,0,0,0,4-2.88l-.93-5.52a2.74,2.74,0,0,1,.78-2.41l4-3.92a2.74,2.74,0,0,0-1.51-4.66l-5.54-.82A2.74,2.74,0,0,1,531.48,56L529,51a2.7,2.7,0,0,0-2.45-1.52Z"/><circle class="cls-1" cx="546.83" cy="36.69" r="16.98" transform="translate(39.77 244.67) rotate(-26.14)"/><path class="cls-2" d="M546.82,22.53h0A14.16,14.16,0,1,1,540.6,24a14.07,14.07,0,0,1,6.22-1.45m0-2.83a17,17,0,1,0,15.26,9.5,16.92,16.92,0,0,0-15.26-9.5Z"/><circle class="cls-1" cx="505.78" cy="38.1" r="16.98" transform="translate(34.94 226.73) rotate(-26.14)"/><path class="cls-2" d="M505.77,23.95h0a14.16,14.16,0,1,1-6.22,1.45,14.07,14.07,0,0,1,6.22-1.45m0-2.83A17,17,0,1,0,521,30.62a16.92,16.92,0,0,0-15.26-9.5Z"/><circle class="cls-1" cx="494.46" cy="76.32" r="16.98" transform="translate(16.95 225.65) rotate(-26.14)"/><path class="cls-2" d="M494.45,62.17h0a14.16,14.16,0,1,1-6.22,1.45,14.07,14.07,0,0,1,6.22-1.45m0-2.83a17,17,0,1,0,15.26,9.5,16.92,16.92,0,0,0-15.26-9.5Z"/><circle class="cls-1" cx="559.57" cy="74.91" r="16.98" transform="translate(24.23 254.19) rotate(-26.14)"/><path class="cls-2" d="M559.56,60.75h0a14.16,14.16,0,1,1-6.22,1.45,14.07,14.07,0,0,1,6.22-1.45m0-2.83a17,17,0,1,0,15.26,9.5,16.92,16.92,0,0,0-15.26-9.5Z"/><circle class="cls-1" cx="527.02" cy="98.97" r="16.98" transform="translate(10.3 242.31) rotate(-26.14)"/><path class="cls-2" d="M527,84.82h0a14.16,14.16,0,1,1-6.22,1.45A14.07,14.07,0,0,1,527,84.82M527,82a17,17,0,1,0,15.26,9.5A16.92,16.92,0,0,0,527,82Z"/><circle class="cls-3" cx="525.6" cy="18.29" r="4.25" transform="translate(45.7 233.43) rotate(-26.14)"/><path class="cls-2" d="M525.6,15.46h0a2.83,2.83,0,1,1-1.24.29,2.81,2.81,0,0,1,1.24-.29m0-1.42a4.25,4.25,0,1,0,3.81,2.38A4.23,4.23,0,0,0,525.6,14Z"/><circle class="cls-3" cx="570.9" cy="49.43" r="4.25" transform="translate(36.61 256.57) rotate(-26.14)"/><path class="cls-2" d="M570.89,46.6h0a2.83,2.83,0,1,1-1.24.29,2.81,2.81,0,0,1,1.24-.29m0-1.42a4.25,4.25,0,1,0,3.81,2.38,4.23,4.23,0,0,0-3.81-2.38Z"/><circle class="cls-3" cx="483.13" cy="52.26" r="4.25" transform="translate(26.39 218.2) rotate(-26.14)"/><path class="cls-2" d="M483.13,49.43h0a2.83,2.83,0,1,1-1.24.29,2.81,2.81,0,0,1,1.24-.29m0-1.42a4.25,4.25,0,1,0,3.81,2.38A4.23,4.23,0,0,0,483.13,48Z"/><circle class="cls-3" cx="553.91" cy="100.39" r="4.25" transform="translate(12.43 254.3) rotate(-26.14)"/><path class="cls-2" d="M553.91,97.56h0a2.83,2.83,0,1,1-1.24.29,2.81,2.81,0,0,1,1.24-.29m0-1.42a4.25,4.25,0,1,0,3.81,2.38,4.23,4.23,0,0,0-3.81-2.38Z"/><circle class="cls-3" cx="500.12" cy="101.8" r="4.25" transform="translate(6.3 230.75) rotate(-26.14)"/><path class="cls-2" d="M500.12,99h0a2.83,2.83,0,1,1-1.24.29,2.81,2.81,0,0,1,1.24-.29m0-1.42a4.25,4.25,0,1,0,3.81,2.38,4.23,4.23,0,0,0-3.81-2.38Z"/><circle class="cls-1" cx="539.76" cy="36.69" r="1.42"/><path class="cls-2" d="M539.76,35.27a1.42,1.42,0,1,0,1.42,1.42,1.42,1.42,0,0,0-1.42-1.42Z"/><circle class="cls-1" cx="553.91" cy="36.69" r="1.42"/><path class="cls-2" d="M553.91,35.27a1.42,1.42,0,1,0,1.42,1.42,1.42,1.42,0,0,0-1.42-1.42Z"/><circle class="cls-1" cx="553.91" cy="74.91" r="1.42"/><path class="cls-2" d="M553.91,73.49a1.42,1.42,0,1,0,1.42,1.42,1.42,1.42,0,0,0-1.42-1.42Z"/><circle class="cls-1" cx="565.24" cy="74.91" r="1.42"/><path class="cls-2" d="M565.24,73.49a1.42,1.42,0,1,0,1.42,1.42,1.42,1.42,0,0,0-1.42-1.42Z"/><circle class="cls-1" cx="519.94" cy="93.31" r="1.42"/><path class="cls-2" d="M519.94,91.9a1.42,1.42,0,1,0,1.42,1.42,1.42,1.42,0,0,0-1.42-1.42Z"/><circle class="cls-1" cx="534.09" cy="93.31" r="1.42"/><path class="cls-2" d="M534.09,91.9a1.42,1.42,0,1,0,1.42,1.42,1.42,1.42,0,0,0-1.42-1.42Z"/><circle class="cls-1" cx="497.29" cy="42.35" r="1.42"/><path class="cls-2" d="M497.29,40.94a1.42,1.42,0,1,0,1.42,1.42,1.42,1.42,0,0,0-1.42-1.42Z"/><circle class="cls-1" cx="514.28" cy="42.35" r="1.42"/><path class="cls-2" d="M514.28,40.94a1.42,1.42,0,1,0,1.42,1.42,1.42,1.42,0,0,0-1.42-1.42Z"/><circle class="cls-1" cx="490.21" cy="72.08" r="1.42"/><path class="cls-2" d="M490.21,70.66a1.42,1.42,0,1,0,1.42,1.42,1.42,1.42,0,0,0-1.42-1.42Z"/><circle class="cls-1" cx="498.71" cy="72.08" r="1.42"/><path class="cls-2" d="M498.71,70.66a1.42,1.42,0,1,0,1.42,1.42,1.42,1.42,0,0,0-1.42-1.42Z"/><path class="cls-2" d="M527,102.51c-6,0-8.33-3.72-8.42-3.88a.71.71,0,0,1,1.21-.74h0c.08.13,2.07,3.2,7.22,3.2s7.17-3.17,7.19-3.2a.71.71,0,0,1,1.21.73C535.31,98.79,533,102.51,527,102.51Z"/><path class="cls-2" d="M559.57,82.69c-4.49,0-6.72-2.14-6.81-2.24a.71.71,0,0,1,1-1,10.17,10.17,0,0,0,11.65,0,.71.71,0,0,1,1,1C566.3,80.55,564.06,82.69,559.57,82.69Z"/><path class="cls-2" d="M505.77,49.49A6.87,6.87,0,0,1,501,47.85a.71.71,0,0,1,1-1,6.32,6.32,0,0,0,7.48,0,.71.71,0,0,1,1,1A6.84,6.84,0,0,1,505.77,49.49Z"/><path class="cls-2" d="M546.83,43.76c-4.42,0-6-1.43-6.15-1.6a.71.71,0,0,1,1-1s1.37,1.19,5.16,1.19,5.16-1.19,5.18-1.2a.71.71,0,0,1,1,0,.7.7,0,0,1,0,1C552.82,42.34,551.22,43.76,546.83,43.76Z"/><path class="cls-2" d="M494.45,79.21a6.87,6.87,0,0,1-4.74-1.64.71.71,0,0,1,1-1,6.32,6.32,0,0,0,7.48,0,.71.71,0,0,1,1,0,.71.71,0,0,1,0,1A6.84,6.84,0,0,1,494.45,79.21Z"/></svg>